<svg version="1.1" id="Layer_1" xmlns="http://www.w3.org/2000/svg" xmlns:xlink="http://www.w3.org/1999/xlink" x="0px" y="0px"
	 width="100%" viewBox="80 110 840 330" enable-background="new 80 110 840 330" xml:space="preserve">
<path fill="#000000" opacity="1.000000" stroke="none" 
	d="
M199.010345,406.856567 
	C189.999771,418.995117 177.156601,422.424133 163.485321,424.312775 
	C155.639267,425.396667 147.816315,423.692505 140.060257,424.275421 
	C125.508240,425.369171 114.216721,419.103821 104.075287,409.766327 
	C95.582550,401.946838 92.963051,392.057495 95.397018,381.061432 
	C99.459976,362.705994 104.026237,344.460785 106.189026,325.738861 
	C107.506516,314.334106 108.889740,302.934631 108.831673,291.423248 
	C108.814819,288.083435 108.694298,284.713501 111.336807,281.817566 
	C108.134407,279.505005 107.911850,276.500671 107.989151,273.196503 
	C108.863602,235.818375 100.418472,200.167221 87.446541,165.451050 
	C82.548149,152.341690 83.560326,147.289551 94.843399,138.686783 
	C96.427155,137.479263 98.139107,136.424057 99.860321,135.415436 
	C106.824745,131.334290 107.342804,131.464172 111.496292,137.992340 
	C110.599106,128.667374 111.397659,127.527924 120.649239,125.550697 
	C126.777000,124.241089 133.096329,121.805283 138.365799,128.714005 
	C140.111298,122.928772 143.993805,122.421432 148.469543,122.754715 
	C161.763489,123.744659 174.496216,126.525688 185.821838,133.998154 
	C189.184799,136.216980 192.026077,139.027451 194.663864,142.055084 
	C199.738876,147.880188 203.288116,153.991257 198.753189,161.832169 
	C198.196793,162.794205 197.826920,163.989334 198.367279,165.242371 
	C200.166870,166.356445 202.222137,165.982086 204.170898,165.986176 
	C238.484024,166.057938 272.798340,166.033920 307.009216,162.868866 
	C310.721161,162.525452 313.001495,164.062134 315.006744,167.593307 
	C317.534424,162.207993 321.534821,162.765900 326.065491,163.367645 
	C356.889069,167.461380 387.803375,167.606186 418.762177,165.002823 
	C426.059235,164.389206 433.411407,164.337296 440.680267,163.514801 
	C445.323822,162.989334 448.545715,163.935547 449.980347,170.283051 
	C451.691193,164.405289 455.038818,164.113464 458.970703,164.779572 
	C472.893524,167.138214 486.885834,165.675964 500.857178,165.416962 
	C521.987793,165.025208 543.092468,162.685013 564.253723,164.559280 
	C564.585510,164.588669 564.919189,164.619873 565.251587,164.616074 
	C593.071411,164.299072 620.856995,166.842697 648.686279,165.619034 
	C652.010315,165.472870 655.321533,164.992172 658.645386,164.893753 
	C668.076172,164.614517 668.339050,164.836349 672.186890,174.887527 
	C675.139587,164.865372 682.730469,166.424637 689.517883,166.794785 
	C708.826965,167.847809 728.048706,164.605209 747.356506,165.902496 
	C761.827271,166.874771 776.313843,167.093506 790.792847,165.921173 
	C792.760010,165.761917 794.794006,166.124847 796.591125,165.268845 
	C797.244812,164.394257 797.039551,163.520935 796.645386,162.829208 
	C791.346069,153.530396 795.613037,146.346802 801.734009,139.565918 
	C803.866455,137.203568 806.286560,135.189911 808.968323,133.459061 
	C815.077332,129.516144 816.038940,129.616089 820.798950,135.378601 
	C819.813721,129.257034 823.335449,127.072609 828.060181,125.579651 
	C841.359863,121.377075 854.867737,120.921967 868.574280,122.819412 
	C873.203979,123.460312 873.644714,127.449722 875.126282,131.294937 
	C879.051880,125.947548 883.313354,127.357246 887.769531,129.581848 
	C896.667175,134.023743 904.882996,139.243561 910.461060,147.822449 
	C913.010254,151.743088 913.485596,155.279831 911.254395,159.870972 
	C895.237549,192.828796 886.449280,227.594147 886.233521,264.361755 
	C886.214294,267.639191 885.893677,270.650513 882.824402,272.900360 
	C886.256409,276.403809 886.286377,280.493378 886.311829,284.722900 
	C886.440918,306.135162 890.487732,327.051025 894.530090,347.966034 
	C896.677185,359.074799 898.649292,370.217255 900.762878,381.332642 
	C904.090027,398.830536 892.795044,414.867310 874.305664,420.233612 
	C872.931396,420.632477 871.942444,421.349701 870.926147,422.189240 
	C868.802002,423.944122 866.214355,425.438690 863.636658,425.023071 
	C851.569580,423.077332 839.338501,425.651611 827.279358,423.313141 
	C818.652771,421.640289 810.466675,419.182770 803.425049,413.730469 
	C798.416199,409.852081 794.431091,405.089050 793.109558,398.823547 
	C792.194458,394.484863 789.744507,393.779907 785.978699,393.841370 
	C774.318848,394.031616 762.724670,395.622864 751.037170,395.287933 
	C746.176758,395.148621 741.234985,395.750061 738.062256,390.154510 
	C735.537231,394.106873 732.225037,394.696472 728.585632,394.224701 
	C708.688843,391.645416 688.678223,392.451843 668.702637,392.114014 
	C660.214417,391.970490 650.589417,393.584869 648.889526,381.118958 
	C648.001404,381.597321 647.748230,381.656403 647.733093,381.752777 
	C645.969299,392.995728 647.701050,392.413208 633.173340,395.243805 
	C604.796692,400.772766 576.132996,399.438965 547.491272,398.774567 
	C532.835571,398.434601 518.173523,398.359467 503.514038,398.195251 
	C488.537079,398.027496 473.555481,398.016449 458.656952,396.122955 
	C455.304169,395.696808 452.046295,396.599640 448.743958,396.993286 
	C428.478149,399.409058 408.221985,399.046295 387.942352,396.883118 
	C377.695129,395.790039 367.447113,395.236328 357.053558,395.863464 
	C339.444672,396.925995 321.783386,397.078491 304.140411,395.696320 
	C296.841339,395.124512 289.493134,395.093170 282.165131,395.012268 
	C278.483582,394.971619 275.144867,394.579193 273.163483,390.533295 
	C269.414673,393.550446 265.243317,393.075836 261.095581,392.876678 
	C244.449509,392.077362 227.797653,391.898010 211.133041,392.209595 
	C206.401337,392.298096 203.094955,393.298645 202.615005,398.832642 
	C202.371857,401.636353 200.767075,404.156464 199.010345,406.856567 
M102.684647,142.312790 
	C102.391251,142.574554 102.097847,142.836304 101.151825,143.248566 
	C97.940971,144.246765 96.104286,146.975128 93.839600,149.138351 
	C92.018761,150.877594 89.899719,153.075424 90.741066,155.572525 
	C92.455124,160.659897 94.894257,165.502975 97.034660,170.446701 
	C97.467682,164.986618 92.544884,160.647003 94.767586,154.907196 
	C107.079063,179.121170 113.524010,204.960709 116.011795,231.917358 
	C111.045624,213.337158 107.970512,194.199173 99.623245,176.627655 
	C100.697784,182.650970 102.066071,188.594543 103.645958,194.481308 
	C107.400047,208.469315 110.024857,222.672714 112.638985,236.911591 
	C114.338402,246.168167 111.212311,256.633392 118.846809,264.591339 
	C119.224899,264.985443 119.172813,265.868744 119.182388,266.526276 
	C119.218346,268.997864 119.196808,271.470276 119.196808,274.435760 
	C123.721291,275.405273 128.307144,276.387939 133.645844,277.531921 
	C127.541428,282.905548 116.756462,281.438446 115.782227,291.797913 
	C117.402245,292.656769 117.709496,290.169891 119.411331,291.443085 
	C120.237343,294.404572 121.562157,298.578735 117.808784,300.074432 
	C115.434799,301.020477 115.132027,302.115204 114.965256,303.669586 
	C114.066124,312.050323 113.087891,320.434326 113.109138,329.315918 
	C114.811432,327.269165 113.367371,324.123199 117.001472,322.961487 
	C116.527580,339.817932 112.565140,355.843384 109.778175,372.239075 
	C113.423492,372.205963 116.008301,369.499084 118.976158,370.179077 
	C119.718674,372.516815 116.632881,372.450134 117.563568,374.804443 
	C125.615173,371.644135 133.994370,369.913544 142.631393,369.362701 
	C137.345932,368.585968 132.069916,369.383575 126.785934,368.988068 
	C133.738937,365.231415 141.303894,365.464539 148.595291,365.339752 
	C152.612259,365.271027 153.640579,363.883667 154.654984,360.708771 
	C155.722870,357.366425 155.495605,353.432953 158.515701,350.644684 
	C159.963745,352.112732 160.189468,353.758514 160.299957,355.418610 
	C160.744888,362.103424 162.147125,366.959137 170.707291,367.993011 
	C179.471390,369.051514 187.473450,373.515656 194.808105,379.264038 
	C192.549591,370.461334 190.291061,361.658630 188.032547,352.855927 
	C188.571274,359.987061 190.499817,366.910004 190.762848,374.708160 
	C183.964905,368.528107 167.456345,281.098450 171.612152,272.401733 
	C173.173172,286.425537 174.611877,299.485779 178.309280,312.165131 
	C174.415115,286.681580 173.966171,261.204071 176.604935,235.561356 
	C179.222031,210.129333 183.333649,185.062027 192.265747,161.038071 
	C194.446243,155.173355 193.447556,150.921112 189.604248,146.467880 
	C178.687668,133.818802 163.903809,130.689392 148.354370,129.317184 
	C145.371750,129.053970 144.831772,131.279861 144.400879,133.467957 
	C143.529190,137.894257 142.719391,142.332748 141.638748,148.068283 
	C139.802902,144.106812 138.677887,141.372345 137.303360,138.769638 
	C132.819305,130.278809 131.239120,129.731949 122.028397,132.029297 
	C119.238869,132.725067 118.026970,133.971939 118.158005,136.784439 
	C118.382492,141.602966 118.185417,146.424088 118.865433,151.242508 
	C119.609665,156.516037 119.914497,161.851578 120.410835,167.160095 
	C118.533386,165.999969 117.664803,164.636444 116.933838,163.202759 
	C113.756165,156.970184 110.672844,150.688797 107.429550,144.490906 
	C106.584572,142.876175 105.954613,140.368332 102.684647,142.312790 
M813.654480,326.630737 
	C809.312683,344.534271 804.970886,362.437805 800.326965,381.587036 
	C808.141357,373.552673 816.459778,369.130005 826.508728,368.451538 
	C823.406494,371.682861 818.892334,371.931519 815.222534,373.982147 
	C811.570496,376.022919 808.045288,378.203857 805.203674,381.318024 
	C800.643616,386.315460 799.607483,388.634583 800.513550,393.382080 
	C805.963684,378.174225 818.517273,373.793457 831.345703,370.286163 
	C830.148926,364.533508 831.839355,359.812622 833.591431,354.062012 
	C835.278748,357.351593 833.629211,359.709045 834.510620,361.935547 
	C836.279724,357.396362 835.656250,352.221649 838.734375,346.537445 
	C840.451721,353.652344 841.804016,359.422882 843.254578,365.168610 
	C843.734924,367.071167 844.111206,369.296051 846.785034,369.309509 
	C858.509216,369.368561 869.870605,371.303345 881.127808,376.333466 
	C879.013611,372.825806 874.454590,373.217834 872.947083,369.171631 
	C878.728455,369.269531 883.035156,372.288208 888.143738,374.377686 
	C885.059265,351.444824 878.736755,329.507812 877.127075,306.859467 
	C880.074402,311.385651 879.501831,316.947784 882.274658,321.481781 
	C881.820068,312.495331 881.094849,303.576813 880.147400,294.681976 
	C879.622681,289.756195 880.080994,284.666229 878.000488,279.998962 
	C878.000488,279.998962 878.030090,280.026947 877.822815,279.374451 
	C874.921997,273.454346 868.368774,271.592102 863.483948,267.183716 
	C867.462280,265.012299 871.261414,266.022278 874.787415,265.372345 
	C878.116150,264.758728 879.782959,263.292633 879.714661,259.760468 
	C879.647156,256.271301 879.778015,252.759171 880.108704,249.284424 
	C883.113770,217.708160 890.688049,187.342590 904.523987,158.693054 
	C906.207275,155.207581 905.776001,152.367264 903.564575,149.444366 
	C899.345520,143.868240 893.894897,139.894714 887.670471,136.847549 
	C881.201599,133.680725 881.353821,133.708328 878.136597,139.995956 
	C876.722900,142.758774 876.544800,146.392548 872.804871,148.510483 
	C871.576050,143.429947 870.244324,138.829041 869.396179,134.140671 
	C868.675171,130.155136 866.489136,128.567413 862.630066,128.289871 
	C851.900696,127.518196 841.373535,128.316376 830.992371,131.318634 
	C827.496155,132.329758 826.224365,134.155807 826.291504,137.743088 
	C826.453613,146.398209 826.318604,155.059570 826.239075,163.717819 
	C826.226929,165.040771 826.874634,166.650314 825.053833,167.838531 
	C820.370239,158.325104 818.837097,147.803711 814.096558,138.457870 
	C808.909973,140.434326 806.217590,144.255341 803.411926,147.969391 
	C800.704956,151.552765 800.267151,154.971939 801.922485,159.513443 
	C805.333496,168.871735 807.897217,178.548416 810.601807,188.152603 
	C816.038330,207.458176 818.227844,227.317398 819.975586,247.198349 
	C821.214294,261.289154 821.234192,275.451599 819.313293,289.521423 
	C817.648804,301.712402 815.769348,313.873993 813.997192,326.016846 
	C813.997192,326.016846 814.018066,325.991943 813.654480,326.630737 
M251.552612,172.257675 
	C232.932785,172.745300 214.324905,173.885849 195.668610,172.927292 
	C210.510925,175.986481 225.693100,172.852615 241.993530,175.365723 
	C238.684784,177.523560 236.483887,177.198761 234.399078,177.248428 
	C222.242828,177.538071 210.084549,177.746567 197.929047,178.062454 
	C195.857773,178.116287 193.153595,177.602936 192.973038,181.537415 
	C216.691971,182.348160 240.174484,181.015167 263.556732,183.193619 
	C262.588837,184.123306 261.623444,184.316269 260.655090,184.332352 
	C245.496964,184.584045 230.338684,184.829697 215.179916,185.039261 
	C208.514252,185.131409 201.846893,185.105164 195.181458,185.207672 
	C193.319870,185.236313 191.097000,184.994629 190.781494,189.156677 
	C204.633728,189.156677 218.186218,189.156677 231.738708,189.156677 
	C231.733276,189.802689 231.727859,190.448715 231.722443,191.094727 
	C224.685379,191.439087 217.645782,191.739258 210.611954,192.140274 
	C203.615463,192.539154 196.444199,191.246490 189.564316,192.827927 
	C189.574814,193.644745 189.585327,194.461548 189.595825,195.278366 
	C199.837067,196.797180 210.438965,194.888000 221.282791,197.381790 
	C218.831085,198.988327 216.686371,198.995453 214.586426,199.021652 
	C207.087952,199.115250 199.588226,199.118073 192.090317,199.239655 
	C190.252075,199.269455 187.936478,198.957108 187.981369,202.413437 
	C197.376923,203.706512 206.852859,201.767944 216.024979,204.393677 
	C206.461273,207.560928 196.122818,204.441635 186.592041,208.063858 
	C193.440247,211.508438 201.147720,208.295975 209.237900,211.542938 
	C204.113220,213.328461 200.151550,213.002792 196.230270,212.692047 
	C193.714722,212.492691 191.251541,212.443130 188.784058,213.039383 
	C187.130798,213.438889 185.256012,213.688354 185.513031,215.976547 
	C185.749313,218.080017 187.614960,217.779999 189.048248,217.814636 
	C192.379929,217.895157 195.717758,217.779053 199.046188,217.913666 
	C201.050049,217.994690 203.367813,217.262161 205.498276,220.090134 
	C199.595200,220.334991 194.414078,221.123123 189.122391,220.684921 
	C187.340790,220.537384 184.854477,220.334274 184.661789,222.673035 
	C184.426636,225.527359 187.148956,224.520813 188.769180,224.804474 
	C191.170822,225.224976 193.961365,223.851074 196.400406,226.370392 
	C193.186813,228.003235 190.096558,226.984970 187.233017,227.577835 
	C185.628052,227.910110 183.747543,227.956512 183.437515,230.135315 
	C183.082779,232.628403 185.000931,232.620499 186.640076,232.946793 
	C187.038177,233.026031 187.367966,233.448502 187.776917,233.748138 
	C186.665970,236.099503 182.807190,234.298065 182.477554,237.555313 
	C182.136276,240.927704 186.557037,239.152542 186.994675,241.711365 
	C185.293701,243.074707 181.589142,242.511368 182.461365,245.998459 
	C183.197174,248.940201 185.955322,247.718216 187.968979,247.901901 
	C189.348602,248.027756 191.037155,247.362137 191.871109,249.546692 
	C190.178528,250.605179 188.347168,250.093979 186.607468,250.187286 
	C184.834915,250.282364 182.807892,249.773453 181.713394,251.817719 
	C180.401901,254.267303 183.569855,254.545563 184.044800,256.451599 
	C182.684586,257.725830 179.755203,259.018768 182.237183,261.299103 
	C183.566895,262.520813 185.931763,262.615875 188.745148,263.510498 
	C184.578415,264.942688 177.281372,263.457184 183.094040,270.599609 
	C183.241272,270.780518 183.205322,271.347870 183.036911,271.513702 
	C178.385223,276.093231 183.671417,276.514496 186.098862,278.034576 
	C184.776962,280.139984 181.268814,279.414001 181.371109,282.745209 
	C181.489624,286.604248 185.325272,284.853973 186.821152,286.611877 
	C185.908081,288.778137 181.968460,287.527008 182.289612,291.111359 
	C182.611237,294.701294 186.533600,292.899841 187.754944,294.852631 
	C186.665985,296.913330 183.478333,295.525665 183.255096,298.495514 
	C182.969757,302.291473 186.951706,301.039124 188.317017,302.859985 
	C183.403503,306.448975 183.403503,306.448975 192.068695,310.938812 
	C191.668213,311.825317 190.868393,311.988373 190.049271,312.131897 
	C188.496368,312.403992 186.286316,311.978302 186.382935,314.452271 
	C186.485611,317.080841 188.743637,316.713196 190.531555,316.878113 
	C193.045929,317.110077 195.738403,316.377075 198.618973,318.143921 
	C196.240692,319.869354 194.055313,319.189606 192.041489,319.362152 
	C190.069733,319.531128 187.505722,319.282745 187.597015,322.088226 
	C187.686234,324.830383 190.270432,324.480530 192.221848,324.669037 
	C194.019211,324.842682 196.007965,324.203278 197.803864,325.524170 
	C196.237930,327.332367 194.470749,326.961365 192.873810,327.183929 
	C191.442627,327.383362 189.509964,327.086365 189.478500,329.219208 
	C189.445053,331.486938 191.408524,331.683533 193.073883,331.778259 
	C195.567001,331.920166 198.076126,331.788147 200.567947,331.942200 
	C202.071106,332.035095 204.001831,331.320709 204.807220,333.613098 
	C202.434341,334.999084 199.861420,334.046570 197.463898,334.452026 
	C195.097839,334.852142 190.939209,332.838287 190.872177,336.570343 
	C190.805359,340.290619 195.008728,338.611450 197.391098,338.929291 
	C201.871567,339.527039 206.589676,338.116180 211.551743,340.476013 
	C205.154816,343.691528 198.298157,340.626129 192.470810,344.006775 
	C199.303574,347.436523 207.036896,345.203156 213.981522,347.923676 
	C207.512833,350.253693 200.457077,348.173706 193.929306,351.003204 
	C202.686386,354.418488 212.142273,352.771820 221.086533,354.880157 
	C212.719604,357.430084 203.911041,355.110596 195.514679,358.143250 
	C205.359222,360.918793 215.710098,358.967804 225.542404,361.878204 
	C216.375259,364.441956 206.621414,362.116089 197.461334,365.162598 
	C214.357147,368.861023 231.563736,366.794312 249.375153,368.106537 
	C246.893906,370.789307 244.767166,370.178833 242.875198,370.192596 
	C230.042572,370.285950 217.208832,370.238953 204.376556,370.357147 
	C202.647827,370.373047 200.214722,369.350281 199.470963,372.302246 
	C201.020050,374.684448 203.407135,373.806641 205.409531,373.807190 
	C224.404785,373.812408 243.398468,373.855469 262.380310,374.676483 
	C263.845490,374.739868 265.632080,374.150085 267.607819,377.347107 
	C244.664856,377.347107 222.824173,377.347107 200.387558,377.347107 
	C201.963928,380.731354 203.914459,380.588287 205.692398,380.511139 
	C223.516525,379.737396 241.330322,381.114624 259.152222,380.747742 
	C260.669891,380.716461 262.399994,380.377655 264.448975,382.614197 
	C243.523743,385.514465 223.322266,383.070129 202.046570,383.648651 
	C205.050003,386.625641 207.335205,385.979248 209.345520,385.755981 
	C226.342621,383.868439 243.289642,385.128510 260.210480,386.618195 
	C265.312653,387.067352 268.206970,385.559784 270.145813,380.697632 
	C272.126801,375.729828 273.818146,370.489319 277.421814,365.792358 
	C280.262238,371.794769 278.713348,377.799866 279.854218,383.472839 
	C280.592407,387.143433 282.082672,388.553894 285.699615,388.644440 
	C295.186523,388.881897 304.680023,389.151520 314.149017,389.752747 
	C336.626099,391.179993 359.128632,387.540558 381.550629,389.850525 
	C399.996887,391.750885 418.565826,393.622101 436.879028,391.333954 
	C452.239136,389.414795 467.337921,390.477356 482.517731,391.039154 
	C503.511810,391.816162 524.507202,391.446167 545.495789,391.949310 
	C547.661621,392.001251 549.828796,392.016937 551.992981,392.106873 
	C578.638062,393.213501 605.254883,394.102295 631.675171,388.950012 
	C640.847778,387.161194 640.657349,387.474213 641.814392,378.216980 
	C642.615417,371.808167 643.298035,365.286682 645.692749,357.961151 
	C649.207642,363.612793 650.310913,368.873627 652.459900,373.668213 
	C658.079224,386.205414 654.140442,385.230011 670.038208,385.556976 
	C689.189636,385.950775 708.361694,385.561066 727.460022,387.386200 
	C730.208252,387.648834 731.357910,386.496124 732.387939,384.313019 
	C733.684265,381.565796 734.081482,378.248413 736.851868,376.148071 
	C739.906128,377.943878 740.920654,380.965790 742.195923,383.502869 
	C744.313660,387.716064 747.325439,388.890350 751.840698,388.858887 
	C760.019714,388.801880 768.149658,388.262512 776.284302,387.592285 
	C781.343506,387.175446 786.402954,386.761200 791.462341,386.345825 
	C776.328186,383.584686 761.045166,386.446381 746.040527,383.033142 
	C761.999573,380.693420 778.270569,382.919739 794.171814,379.226257 
	C777.123779,377.611816 759.961426,378.600189 742.230042,376.655090 
	C744.611084,374.143768 746.722412,374.823853 748.597595,374.808899 
	C761.930115,374.702698 775.265930,374.815460 788.594360,374.545654 
	C791.240906,374.492096 796.092407,376.365204 796.168518,372.459381 
	C796.248657,368.352966 791.414124,370.368835 788.862244,370.317139 
	C775.534180,370.046967 762.198547,370.160706 748.865906,370.090302 
	C746.453979,370.077576 743.953796,370.226807 741.558105,368.717926 
	C743.281616,367.305084 744.996948,367.794006 746.563965,367.761658 
	C762.054260,367.441742 777.546265,367.206940 793.036499,366.885956 
	C795.107422,366.843048 797.787659,367.564758 798.499695,363.495728 
	C786.627686,362.528900 774.981140,363.498840 762.407654,361.736053 
	C766.161865,359.895844 768.998474,360.035370 771.775146,360.003204 
	C779.940979,359.908661 788.107666,359.901611 796.274048,359.854156 
	C798.213074,359.842865 800.312927,359.576416 800.250610,357.151703 
	C800.185669,354.628448 797.837952,355.352753 796.347412,355.331665 
	C788.848755,355.225525 781.347778,355.284271 773.848877,355.188629 
	C772.216980,355.167816 770.236877,355.802185 769.021545,353.800812 
	C770.790283,352.260712 772.697998,352.823029 774.456116,352.797943 
	C782.121460,352.688416 789.788452,352.691589 797.454163,352.597961 
	C799.347595,352.574829 801.664185,353.024658 801.822144,349.620148 
	C794.214355,347.110962 786.124268,349.421844 777.788208,347.575317 
	C779.799194,345.661102 781.665833,345.983826 783.387512,345.962372 
	C788.553467,345.897919 793.721252,345.952454 798.886047,345.847137 
	C800.786072,345.808380 803.464050,346.238312 803.423767,343.328796 
	C803.385559,340.573120 800.770935,341.391388 799.121033,341.329071 
	C795.125916,341.178223 791.119507,341.326935 787.124390,341.175934 
	C784.477234,341.075867 781.658264,341.803894 778.864929,340.354492 
	C780.442200,338.243774 782.237732,338.890259 783.769043,338.858246 
	C789.267090,338.743164 794.768616,338.807648 800.267578,338.722992 
	C802.354370,338.690887 805.315613,339.162048 805.232605,336.085724 
	C805.152710,333.124542 802.187134,334.328613 800.420349,334.136353 
	C795.960388,333.651093 791.322388,334.603943 786.658325,332.805634 
	C788.311646,330.839294 790.025940,331.370209 791.634644,331.318207 
	C795.791992,331.183838 799.948059,330.999298 804.102539,330.792450 
	C805.610962,330.717346 806.698547,330.037537 806.609192,328.341248 
	C806.532410,326.885742 805.477844,326.396240 804.204895,326.338684 
	C802.541138,326.263458 800.855530,326.412506 799.212524,326.203613 
	C796.821594,325.899658 794.021118,327.241272 791.617432,324.483368 
	C792.878662,324.157074 793.649292,323.801392 794.427795,323.783417 
	C797.759277,323.706482 801.093140,323.714355 804.426086,323.720642 
	C806.669861,323.724884 808.615662,323.120514 808.483582,320.484741 
	C808.357422,317.967194 806.067993,318.780853 804.574646,318.538788 
	C802.789001,318.249390 800.677673,319.392761 799.098877,317.425079 
	C800.945862,315.670990 803.039429,316.230072 804.974121,316.042389 
	C806.871582,315.858215 809.560059,316.428040 809.488342,313.492615 
	C809.414124,310.453125 806.609009,311.531799 804.814697,311.230347 
	C801.250244,310.631592 797.369324,312.293701 793.726196,309.979858 
	C795.508545,308.105621 797.428528,308.831970 799.146729,308.720795 
	C801.970459,308.538025 804.812012,308.600647 807.629700,308.365051 
	C808.927124,308.256561 810.417419,307.852753 810.533752,306.154694 
	C810.661743,304.286530 809.068481,304.271851 807.808899,303.898895 
	C806.602966,303.541809 805.103943,303.805298 804.222473,302.220093 
	C805.589844,301.026093 807.302368,301.152252 808.899963,300.940613 
	C810.309387,300.753876 811.616699,300.391479 811.641602,298.656067 
	C811.671570,296.567688 810.118896,296.471100 808.551270,296.260284 
	C806.630859,296.001953 804.299194,297.049652 802.649292,294.799866 
	C805.020813,293.120117 807.446960,294.030548 809.680847,293.674164 
	C811.339417,293.409546 812.527527,292.783142 812.656799,290.928131 
	C812.796570,288.922302 811.593445,288.392273 809.875610,288.232178 
	C808.824524,288.134247 807.423157,288.476379 807.077271,286.763641 
	C808.600586,284.549438 813.021851,286.316040 813.402832,282.520477 
	C812.392822,280.326416 809.313293,281.740601 808.506958,279.234131 
	C809.144348,278.924469 809.703918,278.588867 810.306335,278.372559 
	C811.825073,277.827271 813.857361,277.786621 813.709106,275.458557 
	C813.553101,273.009460 811.524597,273.483643 809.933594,273.251709 
	C808.776367,273.082977 807.097168,273.682281 806.942749,271.614441 
	C808.048401,270.493042 809.462830,270.793335 810.749207,270.750214 
	C812.697693,270.684845 813.926392,269.973785 814.078186,267.872528 
	C814.260681,265.347931 812.505676,265.434204 810.787659,265.255951 
	C809.155823,265.086609 807.148071,265.867004 805.942261,263.855499 
	C808.373047,261.192139 813.434021,264.988312 814.413574,260.266693 
	C815.244507,256.261536 810.172485,258.433472 809.047668,256.353210 
	C810.229004,254.268463 814.000977,255.712997 813.517578,252.788528 
	C812.991760,249.607300 809.884216,250.692612 807.738281,250.317581 
	C805.518372,249.929626 803.025574,250.910172 800.191833,249.043808 
	C803.658142,247.436569 806.496033,247.946182 809.251770,247.819504 
	C811.159607,247.731812 813.618408,248.283249 813.569763,245.147400 
	C813.524902,242.259827 811.257141,242.421509 809.252197,242.207520 
	C805.931702,241.853180 802.430298,243.034012 798.452148,241.043045 
	C802.208313,239.022446 805.547852,240.187592 808.677673,239.798218 
	C810.425476,239.580795 812.696655,240.056458 812.624573,237.246292 
	C812.561401,234.781723 810.575989,234.608490 808.706665,234.304062 
	C806.984314,234.023529 805.081604,234.885712 803.466858,233.554245 
	C804.084167,232.110062 805.417603,232.446960 806.478577,232.172058 
	C808.385193,231.678055 811.553406,232.835266 811.563416,229.628433 
	C811.574463,226.082626 808.322449,227.076981 806.193115,226.933060 
	C801.815857,226.637222 797.326782,227.432022 792.383606,225.489456 
	C796.579468,223.251938 800.494751,224.442871 804.164307,223.888550 
	C806.460571,223.541672 810.544373,225.518295 810.446533,221.370544 
	C810.364136,217.876328 806.510437,219.548798 804.281189,219.126633 
	C801.267029,218.555801 797.857483,220.278549 794.771606,217.686707 
	C797.500427,216.180054 800.076782,216.992050 802.479248,216.576096 
	C804.953003,216.147766 809.351685,218.249588 809.296204,214.121658 
	C809.247925,210.533447 804.831360,211.631592 802.261963,211.474442 
	C797.402344,211.177246 792.511658,211.388535 786.859619,211.388535 
	C788.870850,208.566208 790.849243,209.018661 792.557739,208.958221 
	C796.553467,208.816910 800.557800,208.929596 804.554810,208.810974 
	C806.086365,208.765518 808.417542,209.306778 808.354187,206.822952 
	C808.299927,204.695892 806.103760,204.564087 804.497314,204.505753 
	C799.835693,204.336502 795.161804,204.476181 790.503235,204.264465 
	C787.166992,204.112839 783.699341,204.988052 780.455688,203.093964 
	C788.968506,200.493744 798.115845,203.118500 807.237061,200.762512 
	C805.104553,197.125534 802.441223,197.448288 800.073547,197.398392 
	C793.409241,197.258011 786.740662,197.327423 780.075439,197.215378 
	C778.425537,197.187637 776.496948,197.722488 775.064331,195.961411 
	C777.022766,194.254181 779.102539,194.881790 780.999390,194.846710 
	C788.164062,194.714233 795.331299,194.727890 802.497253,194.655212 
	C803.832886,194.641663 805.420410,194.641159 805.395691,192.756088 
	C805.374268,191.121841 804.012939,190.579315 802.611572,190.453064 
	C801.121216,190.318787 799.615662,190.331268 798.116516,190.321930 
	C786.783813,190.251419 775.450745,190.219421 764.118652,190.097137 
	C762.449890,190.079117 760.523010,190.539566 759.028442,188.849960 
	C760.972046,187.140045 763.047119,187.769852 764.931335,187.755127 
	C776.097290,187.667816 787.264465,187.729279 798.430115,187.622009 
	C800.199036,187.605011 802.586060,188.455704 803.756042,184.229767 
	C791.857788,184.174011 780.367065,184.046967 768.876831,184.086990 
	C757.457947,184.126755 746.066650,183.961395 734.752930,182.648956 
	C734.772278,181.961365 734.791565,181.273788 734.810913,180.586197 
	C756.960266,180.586197 779.109619,180.586197 801.942993,180.586197 
	C800.433167,176.677155 798.005554,177.414124 796.068604,177.397293 
	C779.903198,177.256744 763.737183,177.195374 747.571472,177.096008 
	C744.683472,177.078247 741.800842,176.971603 738.356384,175.424011 
	C758.955505,173.379181 778.796692,174.416138 798.571960,173.009521 
	C796.836975,172.241837 795.095398,172.166168 793.362061,172.253632 
	C777.212341,173.068481 761.069702,173.227997 744.914734,172.250168 
	C737.777588,171.818176 730.438232,170.732239 723.504211,171.863953 
	C712.837769,173.604843 702.257446,173.246292 691.619141,173.099945 
	C678.753418,172.922958 678.823364,172.862411 675.508423,185.212784 
	C674.416077,189.282516 674.108582,193.650116 671.840881,197.408035 
	C670.033142,196.540619 670.079163,195.115219 669.787842,193.846909 
	C668.595581,188.656067 667.113647,183.513016 666.265137,178.267151 
	C665.393738,172.879990 663.018372,170.878693 657.277832,171.177414 
	C640.480774,172.051529 623.665771,172.799515 606.821838,171.949005 
	C572.866699,170.234482 538.907959,169.781998 504.935120,171.774033 
	C491.131866,172.583405 477.252563,173.301895 463.497375,171.619522 
	C458.229675,170.975250 455.745148,172.014862 454.818939,177.256134 
	C453.972931,182.043594 452.617889,186.741089 451.487213,191.478226 
	C451.060760,191.487518 450.634338,191.496826 450.207886,191.506119 
	C448.468018,186.053711 446.484497,180.663712 445.066956,175.128754 
	C443.973816,170.860504 441.666412,169.789917 437.487061,170.091766 
	C421.380005,171.255142 405.260498,172.332336 389.127960,173.035019 
	C368.104553,173.950760 347.180084,171.973267 326.287750,169.958908 
	C322.315460,169.575897 320.916809,171.005051 320.266876,174.541107 
	C319.206604,180.309677 317.879486,186.029205 316.664948,191.769424 
	C313.924835,186.526230 312.158020,181.252563 310.629913,175.910599 
	C309.417816,171.673370 307.276581,169.761108 302.434387,170.049667 
	C285.814545,171.040131 269.166199,171.552765 251.552612,172.257675 
z"/>
<path fill="#000000" opacity="1.000000" stroke="none" 
	d="
M102.887131,142.098206 
	C104.476875,142.868851 106.267906,144.181656 104.180717,145.644745 
	C101.731247,147.361801 99.839264,150.106598 96.205620,150.729141 
	C95.797455,146.480698 99.588173,145.740677 101.609924,143.346817 
	C102.097847,142.836304 102.391251,142.574554 102.887131,142.098206 
z"/>
<path fill="#000000" opacity="1.000000" stroke="none" 
	d="
M315.016052,383.663605 
	C326.618988,383.679962 337.725342,383.680756 348.741943,385.662537 
	C326.818329,386.270203 304.896301,386.814850 283.001740,384.537079 
	C293.462799,381.466217 304.029388,384.349640 315.016052,383.663605 
z"/>
<path fill="#000000" opacity="1.000000" stroke="none" 
	d="
M549.441223,386.638489 
	C534.702637,387.724457 520.331909,387.474915 506.000824,385.502106 
	C520.665588,383.804047 535.348022,383.192749 550.029114,385.033020 
	C552.185791,385.303345 550.506104,386.117310 549.441223,386.638489 
z"/>
<path fill="#000000" opacity="1.000000" stroke="none" 
	d="
M278.047180,176.235687 
	C274.275055,176.239410 270.993011,176.239410 267.710938,176.239410 
	C267.702850,175.781570 267.694733,175.323730 267.686646,174.865891 
	C280.564728,172.789978 293.558685,173.019760 306.576569,173.435287 
	C297.443665,176.995361 287.922241,175.839310 278.047180,176.235687 
z"/>
<path fill="#000000" opacity="1.000000" stroke="none" 
	d="
M556.014587,190.185242 
	C571.679565,189.988297 587.088745,189.988297 602.744446,189.988297 
	C601.717834,192.394791 599.819763,191.971176 598.348755,191.978943 
	C585.376953,192.047379 572.404358,192.027283 559.432434,191.959091 
	C558.087463,191.952026 556.344788,192.374863 556.014587,190.185242 
z"/>
<path fill="#000000" opacity="1.000000" stroke="none" 
	d="
M604.377441,385.042725 
	C615.687195,383.958405 626.680542,382.981659 638.048889,381.971588 
	C637.343506,385.557861 635.417480,385.145599 633.894714,385.362122 
	C625.191528,386.599609 616.410217,386.748901 607.647766,387.045258 
	C606.444946,387.085938 603.775513,388.492462 604.377441,385.042725 
z"/>
<path fill="#000000" opacity="1.000000" stroke="none" 
	d="
M619.997559,180.807526 
	C625.717102,180.809372 630.937317,180.809372 636.157593,180.809372 
	C636.153015,181.437973 636.148499,182.066589 636.143982,182.695190 
	C623.145386,183.442230 610.143982,183.582474 597.137390,182.564911 
	C597.124817,181.978500 597.112244,181.392105 597.099670,180.805695 
	C604.565857,180.805695 612.032104,180.805695 619.997559,180.807526 
z"/>
<path fill="#000000" opacity="1.000000" stroke="none" 
	d="
M688.994385,381.680389 
	C678.891357,382.653992 668.881836,383.611023 658.974548,381.213318 
	C669.055664,379.041321 679.077148,380.139771 688.994385,381.680389 
z"/>
<path fill="#000000" opacity="1.000000" stroke="none" 
	d="
M341.480133,357.182129 
	C341.399597,359.303101 339.794067,359.006866 338.597534,359.013153 
	C328.633575,359.065521 318.669037,359.040924 308.704926,358.992737 
	C307.774384,358.988251 306.645538,359.020081 306.154694,357.007172 
	C317.941620,356.309723 329.569489,356.524536 341.480133,357.182129 
z"/>
<path fill="#000000" opacity="1.000000" stroke="none" 
	d="
M341.656006,205.507690 
	C334.879425,205.532700 328.535370,205.532700 322.191345,205.532700 
	C322.204773,204.923294 322.218201,204.313904 322.231659,203.704498 
	C331.806061,203.704498 341.380493,203.704498 350.954895,203.704498 
	C348.172791,206.000259 345.051514,205.139145 341.656006,205.507690 
z"/>
<path fill="#000000" opacity="1.000000" stroke="none" 
	d="
M731.174316,376.750000 
	C727.354126,378.942505 723.471069,377.958130 719.712585,377.913025 
	C714.634399,377.852081 709.561340,377.359375 704.489868,376.485901 
	C713.017944,375.892792 721.470764,374.565369 730.021606,375.162933 
	C730.493530,375.195923 730.913086,375.978180 731.174316,376.750000 
z"/>
<path fill="#000000" opacity="1.000000" stroke="none" 
	d="
M277.864746,196.925507 
	C286.070251,196.827103 293.872040,196.827103 301.913422,196.827103 
	C301.286499,199.406662 299.935394,199.186966 298.878937,199.196167 
	C292.585724,199.250961 286.289948,199.299576 279.999969,199.146530 
	C279.008728,199.122421 276.188354,200.199661 277.864746,196.925507 
z"/>
<path fill="#000000" opacity="1.000000" stroke="none" 
	d="
M339.852234,173.772827 
	C341.953796,174.138382 343.914124,173.587204 345.776886,175.967163 
	C338.320923,176.348404 331.561768,176.110214 324.883911,174.119324 
	C329.697052,171.530441 334.589447,173.710144 339.852234,173.772827 
z"/>
<path fill="#000000" opacity="1.000000" stroke="none" 
	d="
M678.629883,210.636108 
	C685.651306,210.620026 692.244141,210.620026 698.837036,210.620026 
	C698.841614,211.263824 698.846191,211.907623 698.850769,212.551422 
	C691.311829,213.506760 683.738098,213.303375 676.112061,212.679581 
	C676.074280,210.480209 677.360718,210.895508 678.629883,210.636108 
z"/>
<path fill="#000000" opacity="1.000000" stroke="none" 
	d="
M220.875702,227.379379 
	C215.351105,227.382126 210.303864,227.382126 205.256607,227.382126 
	C205.258713,226.634155 205.260818,225.886169 205.262909,225.138199 
	C212.862930,224.532394 220.472900,224.407288 228.154282,225.834305 
	C226.149979,227.894287 223.648834,227.124786 220.875702,227.379379 
z"/>
<path fill="#000000" opacity="1.000000" stroke="none" 
	d="
M783.006531,232.721680 
	C787.224609,232.916199 791.017212,232.179794 794.892517,233.261536 
	C792.023560,235.784042 776.397034,236.132248 771.812073,233.749664 
	C775.457336,232.011551 779.070312,233.056488 783.006531,232.721680 
z"/>
<path fill="#000000" opacity="1.000000" stroke="none" 
	d="
M642.371216,175.228058 
	C648.832947,175.231461 655.137268,172.959076 661.302246,175.705154 
	C654.886292,177.527863 648.490723,178.227249 642.371216,175.228058 
z"/>
<path fill="#000000" opacity="1.000000" stroke="none" 
	d="
M636.469666,213.972305 
	C634.458069,213.708221 632.704407,214.116592 630.781738,212.109573 
	C638.203796,211.225296 644.975281,211.091217 651.786011,212.616516 
	C646.970093,214.737869 641.883118,213.792908 636.469666,213.972305 
z"/>
<path fill="#000000" opacity="1.000000" stroke="none" 
	d="
M427.859680,187.783142 
	C424.666901,187.597580 421.903107,187.384933 418.576935,187.129028 
	C422.460968,184.336807 433.040100,184.118927 438.083618,186.499496 
	C434.753998,188.178650 431.374359,187.020889 427.859680,187.783142 
z"/>
<path fill="#000000" opacity="1.000000" stroke="none" 
	d="
M431.960632,176.091675 
	C429.100067,175.912750 426.584167,176.715820 424.240143,175.355453 
	C427.229767,173.051147 436.788086,172.336014 440.929474,174.296539 
	C438.190704,176.349091 435.218201,175.869934 431.960632,176.091675 
z"/>
<path fill="#000000" opacity="1.000000" stroke="none" 
	d="
M474.411499,175.469055 
	C474.861664,175.976517 475.005615,176.359039 475.149536,176.741577 
	C469.491364,177.671906 463.906677,177.748062 458.510712,175.123825 
	C463.731781,173.090469 468.916931,175.003754 474.411499,175.469055 
z"/>
<path fill="#000000" opacity="1.000000" stroke="none" 
	d="
M303.905670,372.082123 
	C300.709259,372.032104 297.952393,371.911407 294.562988,370.323883 
	C300.224762,367.895355 304.927307,370.026672 310.212158,369.852020 
	C308.354614,372.691162 306.171692,371.806335 303.905670,372.082123 
z"/>
<path fill="#000000" opacity="1.000000" stroke="none" 
	d="
M562.854370,367.637390 
	C565.428894,367.830475 567.625122,367.199097 569.708679,368.231842 
	C566.792419,370.719147 557.222046,370.976318 552.490906,368.490509 
	C555.942688,367.016327 559.235168,367.908569 562.854370,367.637390 
z"/>
<path fill="#000000" opacity="1.000000" stroke="none" 
	d="
M637.311829,374.952026 
	C638.807312,375.936432 638.567017,376.858826 637.406860,377.241882 
	C633.349426,378.581726 629.266052,378.638947 625.185181,377.020355 
	C628.908997,375.059784 633.047119,375.654724 637.311829,374.952026 
z"/>
<path fill="#000000" opacity="1.000000" stroke="none" 
	d="
M283.647369,378.385345 
	C282.688660,375.550049 284.801575,375.985748 286.022736,376.065582 
	C288.929047,376.255615 291.814270,376.768433 294.740326,377.845062 
	C291.238129,379.270660 287.647491,379.473053 283.647369,378.385345 
z"/>
<path fill="#000000" opacity="1.000000" stroke="none" 
	d="
M692.833130,178.063599 
	C689.669250,178.051468 686.894958,178.568222 684.276550,177.137939 
	C689.093689,174.741806 693.879456,176.558533 698.721008,178.048813 
	C696.906189,178.048813 695.091370,178.048813 692.833130,178.063599 
z"/>
<path fill="#000000" opacity="1.000000" stroke="none" 
	d="
M370.832092,184.104431 
	C372.367493,185.401443 371.598267,186.061859 370.457703,186.139679 
	C366.687866,186.396866 362.892914,186.735321 359.104340,185.099472 
	C362.699524,183.179565 366.640106,183.940933 370.832092,184.104431 
z"/>
<path fill="#000000" opacity="1.000000" stroke="none" 
	d="
M657.574829,375.326294 
	C661.621826,371.767456 666.181885,374.714783 670.603821,374.330444 
	C666.521606,376.851196 662.191589,376.577454 657.574829,375.326294 
z"/>
<path fill="#000000" opacity="1.000000" stroke="none" 
	d="
M598.412109,377.231812 
	C596.873718,377.159973 595.688965,377.270660 594.903259,376.134521 
	C598.112610,374.343872 602.894653,374.089142 608.908081,375.456085 
	C605.642212,377.949615 602.086426,376.807495 598.412109,377.231812 
z"/>
<path fill="#000000" opacity="1.000000" stroke="none" 
	d="
M255.433350,222.287659 
	C253.973328,222.087708 252.657364,222.573669 251.860565,220.545319 
	C255.978287,219.121735 259.912750,219.516861 264.906647,220.373795 
	C261.582642,223.235001 258.549255,221.901154 255.433350,222.287659 
z"/>
<path fill="#000000" opacity="1.000000" stroke="none" 
	d="
M234.085327,350.048096 
	C233.230835,349.433777 232.752808,348.555725 233.534042,348.348450 
	C237.453262,347.308807 241.384125,347.200684 246.378891,348.867706 
	C241.787262,351.102478 238.063889,350.138214 234.085327,350.048096 
z"/>
<path fill="#000000" opacity="1.000000" stroke="none" 
	d="
M726.738892,381.568359 
	C729.599915,382.837128 729.355164,384.031250 726.778320,384.232422 
	C723.382690,384.497467 719.893066,384.501129 716.769531,381.535919 
	C719.960938,381.535919 723.152283,381.535919 726.738892,381.568359 
z"/>
<path fill="#000000" opacity="1.000000" stroke="none" 
	d="
M422.785980,385.453674 
	C421.253296,385.030487 419.670685,384.086273 421.690399,383.431885 
	C424.634949,382.477814 427.978271,382.096985 431.393372,384.540375 
	C428.334869,385.647919 425.742828,385.593994 422.785980,385.453674 
z"/>
<path fill="#000000" opacity="1.000000" stroke="none" 
	d="
M754.776428,350.879639 
	C753.677002,350.564423 752.936768,350.300598 751.539307,349.802551 
	C755.052612,347.658142 757.957703,347.667236 761.564209,349.170929 
	C759.544067,351.530365 757.242920,350.904877 754.776428,350.879639 
z"/>
<path fill="#000000" opacity="1.000000" stroke="none" 
	d="
M259.077820,344.366211 
	C257.039246,344.190918 255.293167,344.766357 253.238251,342.864502 
	C257.521454,341.028137 261.296448,341.885712 266.170990,342.381439 
	C263.661194,345.010010 261.431061,344.100189 259.077820,344.366211 
z"/>
<path fill="#000000" opacity="1.000000" stroke="none" 
	d="
M784.013062,316.201965 
	C786.163757,316.103333 787.951721,315.874207 790.057983,317.594666 
	C784.720093,318.869141 780.071960,317.820160 775.368469,317.317566 
	C778.114807,316.959625 780.861084,316.601685 784.013062,316.201965 
z"/>
<path fill="#000000" opacity="1.000000" stroke="none" 
	d="
M637.558472,367.424896 
	C639.426880,368.930145 638.219421,369.647278 637.084473,369.859985 
	C634.246033,370.391998 631.357971,370.698212 627.778870,369.572266 
	C631.022400,367.089874 634.287354,367.908569 637.558472,367.424896 
z"/>
<path fill="#000000" opacity="1.000000" stroke="none" 
	d="
M202.629318,242.351013 
	C204.661865,239.464600 205.960556,239.303604 210.678177,241.355591 
	C208.123108,243.319046 205.562378,243.201477 202.629318,242.351013 
z"/>
<path fill="#000000" opacity="1.000000" stroke="none" 
	d="
M199.005188,235.334808 
	C197.023453,235.140411 195.298904,235.731461 193.476990,233.914886 
	C197.234161,232.183380 200.582764,232.456665 204.620956,233.846802 
	C202.867157,235.788589 201.028244,235.166061 199.005188,235.334808 
z"/>
<path fill="#000000" opacity="1.000000" stroke="none" 
	d="
M516.550964,186.458542 
	C513.705322,190.041946 510.255646,187.898071 506.902466,187.432480 
	C509.782715,184.890808 513.075378,185.807922 516.550964,186.458542 
z"/>
<path fill="#000000" opacity="1.000000" stroke="none" 
	d="
M302.176331,181.267838 
	C300.537170,181.179504 299.182922,181.474457 297.886841,179.950760 
	C301.129944,178.265518 304.082001,178.522858 307.482117,179.562851 
	C306.122742,181.802658 304.186462,181.059723 302.176331,181.267838 
z"/>
<path fill="#000000" opacity="1.000000" stroke="none" 
	d="
M220.977158,334.803162 
	C219.401871,334.528229 217.970398,334.802429 217.079269,333.532227 
	C220.426544,331.545074 220.835098,331.542328 224.838318,333.475067 
	C223.990067,334.799774 222.551544,334.530151 220.977158,334.803162 
z"/>
<path fill="#000000" opacity="1.000000" stroke="none" 
	d="
M755.546753,229.286896 
	C753.611633,228.806793 752.917542,227.759506 754.770264,227.222366 
	C757.187866,226.521439 759.881409,226.106476 762.842407,228.222733 
	C760.358276,229.850311 758.072998,229.206223 755.546753,229.286896 
z"/>
<path fill="#000000" opacity="1.000000" stroke="none" 
	d="
M715.896973,358.098206 
	C716.480530,355.185699 718.763977,354.913910 723.460022,357.329376 
	C720.994324,358.837860 718.570801,358.152802 715.896973,358.098206 
z"/>
<path fill="#000000" opacity="1.000000" stroke="none" 
	d="
M813.991028,326.032715 
	C817.471924,317.466675 817.573242,307.990692 821.326538,299.451599 
	C819.019470,324.987366 812.756958,349.692383 805.975037,374.335968 
	C803.805298,371.941803 804.807678,369.569519 805.293396,367.278961 
	C808.153931,353.789337 811.075317,340.312592 813.997131,326.411743 
	C814.018066,325.991943 813.997192,326.016846 813.991028,326.032715 
z"/>
<path fill="#000000" opacity="1.000000" stroke="none" 
	d="
M881.267212,221.105103 
	C880.108521,224.390808 880.707031,227.771912 878.170166,230.211731 
	C881.189270,203.203659 889.890808,177.890442 901.319275,153.390884 
	C895.829712,176.175385 886.117493,197.695419 881.267212,221.105103 
z"/>
<path fill="#000000" opacity="1.000000" stroke="none" 
	d="
M804.331055,152.998352 
	C808.551697,158.355774 809.579224,164.881592 811.549683,171.000092 
	C816.559814,186.557083 819.426208,202.606445 821.882996,218.730530 
	C822.001770,219.509781 821.898315,220.322876 821.898315,221.186829 
	C819.907654,221.123749 819.984619,219.728058 819.797607,218.729721 
	C815.868286,197.754669 810.750244,177.085571 804.053833,156.813400 
	C803.659851,155.620636 803.045898,154.282959 804.331055,152.998352 
z"/>
<path fill="#000000" opacity="1.000000" stroke="none" 
	d="
M824.814819,204.588440 
	C824.499207,204.955780 824.019897,205.172333 823.984253,205.114639 
	C823.559692,204.428024 823.006836,203.739594 822.854004,202.978088 
	C819.480347,186.174759 814.991089,169.672577 809.629333,153.399734 
	C809.289734,152.369019 808.586792,151.230789 810.462036,149.110641 
	C818.375122,167.147842 822.238464,185.553619 824.814819,204.588440 
z"/>
<path fill="#000000" opacity="1.000000" stroke="none" 
	d="
M814.009399,357.154938 
	C816.342529,347.450378 818.574402,338.151428 820.806335,328.852478 
	C821.300903,328.959198 821.795532,329.065948 822.290100,329.172699 
	C820.984375,342.183350 817.804199,354.819366 813.908630,367.348541 
	C811.677917,363.969452 813.517883,360.784973 814.009399,357.154938 
z"/>
<path fill="#000000" opacity="1.000000" stroke="none" 
	d="
M884.609741,185.552261 
	C883.084839,189.867554 882.685425,194.229355 879.462830,197.428146 
	C880.943481,187.882050 883.270203,178.608566 887.536255,169.232346 
	C888.845215,173.033310 888.751526,173.498474 884.609741,185.552261 
z"/>
<path fill="#000000" opacity="1.000000" stroke="none" 
	d="
M877.194580,340.072906 
	C879.991516,345.337036 883.366821,362.296509 883.003540,368.101654 
	C880.064453,366.020111 876.477112,349.381409 877.194580,340.072906 
z"/>
<path fill="#000000" opacity="1.000000" stroke="none" 
	d="
M822.775269,250.156464 
	C823.089355,246.289871 821.681946,242.830856 822.990601,239.258652 
	C826.247559,244.043045 827.024780,258.982819 824.427063,267.597473 
	C822.640137,261.755920 823.006958,256.160034 822.775269,250.156464 
z"/>
<path fill="#000000" opacity="1.000000" stroke="none" 
	d="
M837.880371,223.495697 
	C838.077454,230.081375 838.223145,236.216583 838.315552,242.352600 
	C838.321411,242.739532 837.911621,243.132736 837.057068,244.673798 
	C835.334534,234.184555 835.585632,224.735260 834.633057,214.334213 
	C838.612976,217.168442 836.687195,220.573074 837.880371,223.495697 
z"/>
<path fill="#000000" opacity="1.000000" stroke="none" 
	d="
M885.421997,164.279419 
	C883.745056,167.951950 883.442505,171.875732 880.419556,174.940842 
	C880.514465,168.679611 885.068176,155.758469 888.357666,152.523636 
	C889.023865,156.931015 886.308533,160.199692 885.421997,164.279419 
z"/>
<path fill="#000000" opacity="1.000000" stroke="none" 
	d="
M847.371826,130.969513 
	C853.704773,129.541153 859.542664,130.475784 865.314880,132.414307 
	C859.108459,133.127655 852.935120,133.706940 846.837585,131.904449 
	C846.775024,131.885971 846.735413,131.600250 846.777344,131.468658 
	C846.823914,131.322327 846.976318,131.209656 847.371826,130.969513 
z"/>
<path fill="#000000" opacity="1.000000" stroke="none" 
	d="
M890.605713,159.430450 
	C892.369080,154.855392 893.094421,150.169403 896.913940,146.954987 
	C896.852478,153.043503 894.018738,158.074448 891.277161,163.429016 
	C889.433655,161.937256 890.305237,160.842346 890.605713,159.430450 
z"/>
<path fill="#000000" opacity="1.000000" stroke="none" 
	d="
M837.598511,146.519073 
	C837.583984,144.068024 836.080505,141.945648 837.922852,139.964661 
	C840.334229,143.781952 841.372009,154.410751 839.580322,159.973999 
	C837.819031,155.320496 837.821960,151.117401 837.598511,146.519073 
z"/>
<path fill="#000000" opacity="1.000000" stroke="none" 
	d="
M877.989380,246.998108 
	C877.988464,251.709000 878.978394,256.187103 876.679993,260.698669 
	C874.369019,257.199890 874.597534,248.188354 876.743164,245.926208 
	C876.809204,245.856583 877.491699,246.371674 877.989380,246.998108 
z"/>
<path fill="#000000" opacity="1.000000" stroke="none" 
	d="
M857.920532,368.047729 
	C853.605835,367.865906 849.442810,369.267548 845.415222,366.901184 
	C848.660583,364.564545 856.545471,364.628448 858.899414,366.781433 
	C858.982117,366.857056 858.507812,367.541809 857.920532,368.047729 
z"/>
<path fill="#000000" opacity="1.000000" stroke="none" 
	d="
M877.986328,279.984344 
	C877.535767,283.896179 879.022827,288.071289 876.625854,291.987122 
	C873.391052,287.029419 873.715881,282.437958 877.653198,280.053772 
	C878.030090,280.026947 878.000488,279.998962 877.986328,279.984344 
z"/>
<path fill="#000000" opacity="1.000000" stroke="none" 
	d="
M836.461914,329.510773 
	C837.225708,324.935150 835.609924,320.332947 838.655029,315.605865 
	C839.787109,321.014862 839.411987,325.550201 838.282288,330.015076 
	C837.757568,332.088776 836.950195,331.604950 836.461914,329.510773 
z"/>
<path fill="#000000" opacity="1.000000" stroke="none" 
	d="
M871.224121,201.924179 
	C870.731445,203.987640 870.545410,205.764542 868.870728,206.959839 
	C868.783997,202.238007 869.036682,197.626373 871.289429,192.561600 
	C873.057068,196.199341 871.682373,198.845291 871.224121,201.924179 
z"/>
<path fill="#000000" opacity="1.000000" stroke="none" 
	d="
M847.947998,164.051666 
	C848.006104,167.581253 848.943604,170.855515 846.836365,174.620224 
	C844.985840,170.316086 845.382568,166.549362 846.083313,163.013779 
	C846.416260,161.333847 847.378784,162.992661 847.947998,164.051666 
z"/>
<path fill="#000000" opacity="1.000000" stroke="none" 
	d="
M889.727539,142.264847 
	C886.469543,142.020294 883.704773,141.049438 880.602905,137.733765 
	C885.455627,137.471176 888.268127,138.481201 889.727539,142.264847 
z"/>
<path fill="#000000" opacity="1.000000" stroke="none" 
	d="
M869.479309,342.463074 
	C869.151855,340.501190 868.391541,338.902466 869.795105,336.912415 
	C872.016846,340.384125 872.554016,343.826111 871.898132,348.003113 
	C869.351196,346.731415 869.974915,344.548553 869.479309,342.463074 
z"/>
<path fill="#000000" opacity="1.000000" stroke="none" 
	d="
M849.861572,324.247986 
	C850.450623,323.246918 851.290222,323.102997 851.498169,323.816223 
	C852.499146,327.249512 852.806702,330.700500 850.895203,334.895477 
	C848.962585,331.026123 849.895020,327.751373 849.861572,324.247986 
z"/>
<path fill="#000000" opacity="1.000000" stroke="none" 
	d="
M873.203125,159.239716 
	C873.208740,162.921234 872.948181,166.214935 870.744629,169.073181 
	C870.342102,165.380219 870.079285,161.727356 872.409851,158.437912 
	C872.442566,158.391678 872.699890,158.452087 872.809326,158.526306 
	C872.938904,158.614166 873.021667,158.771103 873.203125,159.239716 
z"/>
<path fill="#000000" opacity="1.000000" stroke="none" 
	d="
M810.879150,145.904297 
	C809.737671,146.480011 808.967773,147.293488 807.576721,146.424728 
	C808.237854,143.194946 810.419373,142.041595 813.535950,141.725403 
	C814.197083,144.205658 812.195129,144.639633 810.879150,145.904297 
z"/>
<path fill="#000000" opacity="1.000000" stroke="none" 
	d="
M172.601959,216.723770 
	C175.931198,194.458496 181.371414,173.200165 189.637390,152.660660 
	C184.556396,178.227997 176.546600,203.121674 172.452011,228.975540 
	C171.198853,224.951614 171.765839,221.053833 172.601959,216.723770 
z"/>
<path fill="#000000" opacity="1.000000" stroke="none" 
	d="
M179.751495,156.873383 
	C181.281326,152.593079 181.325714,148.128189 184.967880,145.069275 
	C182.493988,161.797318 176.764648,177.684875 172.376160,193.968369 
	C171.195847,189.756805 172.740082,185.852371 173.596848,181.894394 
	C174.473343,177.845352 175.397644,173.805145 176.391083,169.783325 
	C177.424927,165.597961 178.566452,161.439194 179.751495,156.873383 
z"/>
<path fill="#000000" opacity="1.000000" stroke="none" 
	d="
M175.488953,332.622559 
	C177.927917,344.381653 181.494308,355.506226 181.818817,367.244141 
	C175.723831,351.712799 173.635773,335.316132 171.163742,318.987518 
	C174.319809,322.880188 174.131699,327.769745 175.488953,332.622559 
z"/>
<path fill="#000000" opacity="1.000000" stroke="none" 
	d="
M105.496918,161.703369 
	C109.107094,171.547287 111.849388,181.233810 114.177933,191.034180 
	C113.664490,191.204147 113.151047,191.374100 112.637604,191.544052 
	C108.075829,178.516891 103.514046,165.489731 98.496124,151.159943 
	C103.552658,153.999817 103.285431,158.401093 105.496918,161.703369 
z"/>
<path fill="#000000" opacity="1.000000" stroke="none" 
	d="
M176.105316,151.907852 
	C174.450363,156.500565 174.527756,161.273987 171.546661,165.000519 
	C171.849304,156.518021 173.945709,148.490662 176.796936,140.610535 
	C178.848618,144.484329 176.327621,147.890411 176.105316,151.907852 
z"/>
<path fill="#000000" opacity="1.000000" stroke="none" 
	d="
M120.205246,344.648499 
	C118.806854,351.706482 119.282646,358.757141 115.825371,365.054108 
	C115.103394,357.230408 117.098640,349.790314 118.510918,342.215302 
	C120.366699,342.562805 120.083275,343.525269 120.205246,344.648499 
z"/>
<path fill="#000000" opacity="1.000000" stroke="none" 
	d="
M133.166168,200.848175 
	C133.186966,202.735016 133.474411,204.242981 132.181961,206.575714 
	C129.120850,199.791061 129.846893,193.421921 129.388351,185.731216 
	C132.360611,188.703033 132.069458,191.191559 132.319260,193.501053 
	C132.569336,195.813141 132.867523,198.120026 133.166168,200.848175 
z"/>
<path fill="#000000" opacity="1.000000" stroke="none" 
	d="
M145.041077,189.926682 
	C144.584366,191.195786 143.473297,192.517731 143.152847,191.087280 
	C142.029312,186.071945 141.162979,180.914886 143.204987,175.819611 
	C145.307541,180.225113 145.153915,184.896484 145.041077,189.926682 
z"/>
<path fill="#000000" opacity="1.000000" stroke="none" 
	d="
M168.780792,359.861206 
	C168.040985,355.447357 166.657593,351.511810 166.999664,347.073456 
	C170.108917,349.998138 172.321198,359.829926 171.058304,364.358002 
	C169.095718,363.616425 169.553101,361.612671 168.780792,359.861206 
z"/>
<path fill="#000000" opacity="1.000000" stroke="none" 
	d="
M163.162201,231.848099 
	C162.994858,236.370728 163.951675,240.615875 161.643341,244.609665 
	C160.419647,240.140167 160.302597,235.563599 161.062286,231.078644 
	C161.379532,229.205841 162.606277,230.104858 163.162201,231.848099 
z"/>
<path fill="#000000" opacity="1.000000" stroke="none" 
	d="
M130.827454,345.086121 
	C130.935989,342.415955 130.987885,340.165070 132.690887,338.245544 
	C133.480255,342.733948 133.662582,347.175507 132.355759,352.799927 
	C130.145721,349.856476 130.984650,347.581848 130.827454,345.086121 
z"/>
<path fill="#000000" opacity="1.000000" stroke="none" 
	d="
M132.845734,307.602539 
	C133.548813,311.990845 133.279602,316.000366 131.126770,319.764038 
	C131.145264,315.567200 128.924835,311.158264 132.845734,307.602539 
z"/>
<path fill="#000000" opacity="1.000000" stroke="none" 
	d="
M153.961334,148.213226 
	C154.202362,146.438980 153.902115,144.852356 155.702438,143.767471 
	C157.664368,146.893387 156.215073,149.887939 155.866898,153.303848 
	C153.373718,152.087173 154.080383,150.180328 153.961334,148.213226 
z"/>
<path fill="#000000" opacity="1.000000" stroke="none" 
	d="
M128.137970,134.507904 
	C125.523064,135.918335 123.128624,137.274078 119.716202,135.892654 
	C122.513138,132.868546 124.996880,131.487778 128.137970,134.507904 
z"/>
<path fill="#000000" opacity="1.000000" stroke="none" 
	d="
M172.619949,250.498627 
	C172.436310,253.123993 172.235840,255.392288 172.035355,257.660583 
	C171.481705,257.653748 170.928055,257.646881 170.374405,257.640045 
	C169.402679,254.532425 169.243057,251.384918 170.728806,248.144440 
	C172.564285,248.014603 172.312302,249.291489 172.619949,250.498627 
z"/>
<path fill="#000000" opacity="1.000000" stroke="none" 
	d="
M125.753197,224.948654 
	C126.165092,227.213699 126.759018,229.146133 125.300362,231.345093 
	C122.963348,228.513809 123.312378,225.435608 123.246185,222.385788 
	C125.260521,222.210114 125.186394,223.644821 125.753197,224.948654 
z"/>
<path fill="#000000" opacity="1.000000" stroke="none" 
	d="
M107.329552,161.527771 
	C106.970062,160.069580 106.570869,158.949539 107.684135,157.685593 
	C110.587914,159.654068 110.426971,162.535370 110.826233,165.635818 
	C108.070503,165.160965 108.021049,163.317703 107.329552,161.527771 
z"/>
<path fill="#000000" opacity="1.000000" stroke="none" 
	d="
M125.010788,203.878448 
	C124.977005,204.987961 124.894981,205.758286 124.753906,207.083160 
	C121.496452,204.764099 121.747147,202.142624 122.347305,199.210297 
	C125.036484,199.808914 124.169548,202.146759 125.010788,203.878448 
z"/>
</svg>